<svg width="49" height="48" xmlns="http://www.w3.org/2000/svg" xmlns:xlink="http://www.w3.org/1999/xlink" xml:space="preserve" overflow="hidden"><g transform="translate(-208 -392)"><g><g><g><g><path d="M255.188 417.61C255.188 417.57 255.17 417.517 255.17 417.503L255.17 417.405 255.15 417.31C254.557 414.38 252.805 412.24 249.938 410.943 249.921 410.187 249.837 409.434 249.688 408.693 249.179 406.328 247.851 404.22 245.938 402.74 243.307 400.54 240.188 399.675 236.647 400.172L236.622 400.172C233.439 400.669 230.609 402.478 228.822 405.16 227.837 405.048 226.838 405.118 225.878 405.365 223.189 405.935 220.93 407.748 219.792 410.25 219.072 410.32 218.273 410.4 217.542 410.543L217.475 410.557C215.115 411.196 213.135 412.804 212.025 414.983 210.959 417.021 210.803 419.415 211.595 421.575 212.925 425.155 216.182 427.383 220.095 427.383L220.74 427.383 220.74 425.45 220.09 425.45C217.003 425.45 214.438 423.7 213.395 420.895 212.792 419.245 212.915 417.416 213.735 415.862 214.589 414.179 216.111 412.933 217.93 412.427 218.617 412.3 219.372 412.228 220.102 412.158L220.223 412.158C220.749 412.162 221.223 411.84 221.415 411.35L221.443 411.29C222.443 409.112 224.03 407.79 226.33 407.26 227.118 407.048 227.941 406.994 228.75 407.1 229.328 407.269 229.948 407.021 230.25 406.5 231.86 404.047 234.107 402.562 236.93 402.082 239.93 401.665 242.485 402.365 244.71 404.23L244.75 404.25C246.315 405.446 247.399 407.165 247.805 409.092 247.953 409.833 248.026 410.587 248.022 411.342L248.022 411.5 248.095 411.712C248.208 412.145 248.536 412.488 248.962 412.62 251.353 413.645 252.755 415.28 253.25 417.62 253.26 417.75 253.279 417.878 253.307 418.005 253.307 418.045 253.327 418.1 253.327 418.112L253.327 419.5C253.248 420.008 253.131 420.509 252.98 421 252.219 423.005 250.56 424.534 248.5 425.13L248.5 427.13C251.392 426.493 253.763 424.431 254.795 421.655L254.818 421.587C255.012 420.966 255.155 420.33 255.247 419.685L255.247 418.112C255.247 417.943 255.227 417.775 255.188 417.61Z" fill="#000000" fill-rule="nonzero" fill-opacity="1"/><path d="M224.423 418.365 230.13 418.365 230.13 422.047 224.423 422.047Z" fill="#307FE2" fill-rule="nonzero" fill-opacity="1"/><path d="M231.645 412.905 237.353 412.905 237.353 416.717 231.645 416.717Z" fill="#307FE2" fill-rule="nonzero" fill-opacity="1"/><path d="M231.645 423.693 237.353 423.693 237.353 427.375 231.645 427.375Z" fill="#307FE2" fill-rule="nonzero" fill-opacity="1"/><path d="M238.87 418.365 244.577 418.365 244.577 422.047 238.87 422.047Z" fill="#307FE2" fill-rule="nonzero" fill-opacity="1"/><path d="M238.87 412.905 242.292 412.905C243.44 413.285 244.447 414.682 244.577 416.328L244.577 416.707 238.87 416.707 238.87 412.905ZM224.423 416.328C224.553 414.682 225.56 413.285 226.708 412.905L230.13 412.905 230.13 416.717 224.423 416.717ZM230.13 427.365 226.577 427.365C225.44 426.985 224.553 425.717 224.423 424.073L224.423 423.693 230.13 423.693ZM244.577 424.073C244.447 425.717 243.577 426.985 242.423 427.365L238.87 427.365 238.87 423.682 244.577 423.682Z" fill="#307FE2" fill-rule="nonzero" fill-opacity="1"/><path d="M230.13 412.905 226.708 412.905C225.56 413.285 224.553 414.682 224.423 416.328L224.423 416.707 230.13 416.707Z" fill="#307FE2" fill-rule="nonzero" fill-opacity="1"/><path d="M224.423 424.073C224.553 425.717 225.44 426.985 226.577 427.365L230.13 427.365 230.13 423.682 224.423 423.682Z" fill="#307FE2" fill-rule="nonzero" fill-opacity="1"/><path d="M244.577 416.328C244.447 414.682 243.44 413.285 242.292 412.905L238.87 412.905 238.87 416.717 244.577 416.717 244.577 416.328Z" fill="#307FE2" fill-rule="nonzero" fill-opacity="1"/><path d="M238.87 427.365 242.423 427.365C243.57 426.985 244.447 425.717 244.577 424.073L244.577 423.693 238.87 423.693Z" fill="#307FE2" fill-rule="nonzero" fill-opacity="1"/></g></g></g></g></g></svg>