<svg width="49" height="50" xmlns="http://www.w3.org/2000/svg" xmlns:xlink="http://www.w3.org/1999/xlink" xml:space="preserve" overflow="hidden"><g transform="translate(-444 -138)"><g><g><g><g><path d="M482.1 168.325 478.025 168.325C477.475 168.325 477.025 167.875 477.025 167.325 477.025 166.775 477.475 166.325 478.025 166.325L482.1 166.325C485.125 166.325 487.65 164.65 488.7 161.925 488.85 161.45 488.975 160.95 489.05 160.45L489.05 159.075C489.05 159.075 489.05 159.025 489.025 158.975 489 158.85 488.975 158.725 488.975 158.6 488.475 156.3 487.1 154.675 484.725 153.65 484.3 153.5 483.95 153.15 483.85 152.725L483.825 152.675C483.775 152.575 483.775 152.45 483.775 152.35 483.775 151.6 483.7 150.85 483.55 150.125 483.15 148.225 482.075 146.525 480.525 145.325L480.5 145.3C478.3 143.45 475.775 142.75 472.8 143.175 470 143.65 467.8 145.125 466.2 147.55 465.9 148.075 465.25 148.35 464.65 148.175 463.85 148.075 463.05 148.125 462.275 148.325 460 148.85 458.425 150.15 457.45 152.3L457.425 152.35C457.225 152.85 456.75 153.2 456.2 153.2L456.075 153.2C455.35 153.275 454.6 153.35 453.925 153.475 452.125 153.975 450.625 155.2 449.775 156.875 448.975 158.4 448.85 160.225 449.425 161.85 450.45 164.625 453 166.35 456.05 166.35L462.625 166.35C463.175 166.35 463.625 166.8 463.625 167.35 463.625 167.9 463.175 168.35 462.625 168.35L456.05 168.35C452.15 168.35 448.9 166.125 447.55 162.55 446.75 160.375 446.9 157.975 447.975 155.95 449.075 153.775 451.075 152.175 453.425 151.525L453.5 151.5C454.225 151.35 455.025 151.275 455.725 151.2 456.875 148.7 459.125 146.9 461.8 146.35 462.75 146.1 463.75 146.025 464.725 146.15 466.5 143.5 469.325 141.7 472.475 141.2L472.5 141.2C476.025 140.7 479.15 141.575 481.775 143.75 483.675 145.25 485 147.35 485.5 149.7 485.65 150.425 485.725 151.175 485.75 151.925 488.6 153.225 490.35 155.35 490.925 158.275 490.95 158.35 490.95 158.4 490.95 158.475 490.95 158.475 490.95 158.525 490.975 158.575 491.025 158.75 491.025 158.9 491.025 159.075L491.025 160.525C491.025 160.575 491.025 160.6 491.025 160.65 490.925 161.3 490.8 161.925 490.6 162.55L490.575 162.625C489.25 166.15 486 168.325 482.1 168.325Z" fill="#000000" fill-rule="nonzero" fill-opacity="1"/><path d="M473.975 162.525C473.975 162.45 473.9 162.45 473.825 162.45L470.25 162.45 471.6 158.4C471.6 158.325 471.6 158.25 471.525 158.25L471.375 158.25 466.5 164.2 466.5 164.35C466.575 164.425 466.575 164.425 466.65 164.425L469.875 164.425 468.45 168.85C468.45 168.9 468.475 168.95 468.525 169L468.6 169C468.65 169 468.675 168.975 468.675 168.925 468.675 168.925 468.675 168.925 468.675 168.925L473.975 162.675 473.975 162.525Z" fill="#307FE2" fill-rule="nonzero" fill-opacity="1"/><path d="M471.775 175.15 468.85 175.15C468.425 175.15 468.05 174.875 467.9 174.475 467.825 174.25 467.75 174.075 467.7 173.875 467.3 172.7 467.175 172.4 466.675 172.2 466.125 171.975 465.75 172.125 464.7 172.65L464.125 172.925C463.75 173.1 463.3 173.025 463 172.725L460.95 170.675C460.65 170.375 460.575 169.925 460.75 169.525 460.85 169.325 460.95 169.125 461.05 168.925 461.6 167.85 461.7 167.525 461.5 167.025 461.3 166.525 461 166.4 459.875 166 459.675 165.925 459.425 165.85 459.2 165.75 458.8 165.6 458.55 165.225 458.55 164.8L458.55 161.95C458.55 161.525 458.8 161.15 459.2 161 459.45 160.9 459.7 160.825 459.925 160.75 461.025 160.375 461.325 160.225 461.5 159.75 461.675 159.275 461.6 158.95 461.075 157.9 460.975 157.7 460.875 157.475 460.75 157.25 460.575 156.875 460.65 156.4 460.95 156.1L462.975 154.075C463.275 153.775 463.725 153.7 464.1 153.875 464.325 153.975 464.55 154.075 464.75 154.175 465.775 154.675 466.125 154.825 466.65 154.625 467.175 154.425 467.3 154.05 467.675 152.95 467.75 152.75 467.8 152.55 467.875 152.35 468.025 151.95 468.4 151.675 468.825 151.675L471.75 151.675C472.175 151.675 472.55 151.95 472.7 152.35 472.775 152.55 472.85 152.75 472.9 152.95 473.275 154.05 473.4 154.4 473.95 154.65 474.5 154.9 474.825 154.7 475.875 154.2L476.475 153.9C476.85 153.725 477.3 153.8 477.6 154.1L479.65 156.15C479.95 156.45 480.025 156.9 479.85 157.275 479.75 157.5 479.65 157.7 479.55 157.875 479.05 158.9 478.9 159.25 479.1 159.775 479.3 160.3 479.625 160.425 480.725 160.775 480.95 160.85 481.175 160.925 481.4 161 481.8 161.15 482.05 161.525 482.05 161.95L482.05 164.825C482.05 165.25 481.8 165.625 481.4 165.775 481.175 165.85 480.95 165.95 480.75 166 479.675 166.375 479.325 166.525 479.1 167.025 478.875 167.525 479.05 167.9 479.55 168.925 479.65 169.125 479.75 169.325 479.85 169.525 480.025 169.9 479.95 170.375 479.65 170.675L477.6 172.725C477.3 173.025 476.85 173.1 476.475 172.925 476.25 172.825 476.05 172.725 475.85 172.625 474.775 172.1 474.45 172 473.975 172.2L473.95 172.2C473.45 172.4 473.3 172.7 472.9 173.9 472.85 174.075 472.775 174.275 472.7 174.475 472.575 174.85 472.2 175.125 471.775 175.15ZM469.575 173.15 471.05 173.15C471.425 171.975 471.825 170.9 473.2 170.35 474.575 169.8 475.6 170.275 476.7 170.8L477.725 169.775C477.2 168.7 476.7 167.65 477.25 166.3 477.25 166.3 477.25 166.275 477.25 166.275 477.825 164.925 478.9 164.55 480.05 164.15L480.05 162.7C478.9 162.3 477.825 161.95 477.25 160.575 476.675 159.2 477.2 158.15 477.725 157.075L476.7 156.05C475.6 156.6 474.55 157.075 473.2 156.525 471.85 155.975 471.425 154.875 471.05 153.725L469.575 153.725C469.2 154.875 468.8 155.95 467.475 156.525L467.45 156.525C466.075 157.075 465.025 156.575 463.925 156.05L462.9 157.075C463.45 158.175 463.95 159.2 463.375 160.575 462.825 161.925 461.75 162.3 460.575 162.7L460.55 162.7 460.55 164.15C461.725 164.55 462.8 164.925 463.35 166.3 463.9 167.675 463.425 168.7 462.875 169.8L463.9 170.825C465 170.3 466.05 169.8 467.425 170.375 468.8 170.95 469.2 171.975 469.575 173.15Z" fill="#000000" fill-rule="nonzero" fill-opacity="1"/><path d="M487 185 451 185C450.45 185 450 184.55 450 184L450 178C450 177.45 450.45 177 451 177L487 177C487.55 177 488 177.45 488 178L488 184C488 184.55 487.55 185 487 185ZM452 183 486 183 486 179 452 179 452 183Z" fill="#307FE2" fill-rule="nonzero" fill-opacity="1"/><path d="M456 185C455.45 185 455 184.55 455 184L455 178C455 177.45 455.45 177 456 177 456.55 177 457 177.45 457 178L457 184C457 184.55 456.55 185 456 185Z" fill="#307FE2" fill-rule="nonzero" fill-opacity="1"/><path d="M464.675 185C464.125 185 463.675 184.55 463.675 184L463.675 178C463.675 177.45 464.125 177 464.675 177 465.225 177 465.675 177.45 465.675 178L465.675 184C465.675 184.55 465.225 185 464.675 185Z" fill="#307FE2" fill-rule="nonzero" fill-opacity="1"/><path d="M473.325 185C472.775 185 472.325 184.55 472.325 184L472.325 178C472.325 177.45 472.775 177 473.325 177 473.875 177 474.325 177.45 474.325 178L474.325 184C474.325 184.55 473.875 185 473.325 185Z" fill="#307FE2" fill-rule="nonzero" fill-opacity="1"/><path d="M482 185C481.45 185 481 184.55 481 184L481 178C481 177.45 481.45 177 482 177 482.55 177 483 177.45 483 178L483 184C483 184.55 482.55 185 482 185Z" fill="#307FE2" fill-rule="nonzero" fill-opacity="1"/><path d="M460.325 185C459.775 185 459.325 184.55 459.325 184L459.325 178C459.325 177.45 459.775 177 460.325 177 460.875 177 461.325 177.45 461.325 178L461.325 184C461.325 184.55 460.875 185 460.325 185Z" fill="#307FE2" fill-rule="nonzero" fill-opacity="1"/><path d="M469 185C468.45 185 468 184.55 468 184L468 178C468 177.45 468.45 177 469 177 469.55 177 470 177.45 470 178L470 184C470 184.55 469.55 185 469 185Z" fill="#307FE2" fill-rule="nonzero" fill-opacity="1"/><path d="M477.675 185C477.125 185 476.675 184.55 476.675 184L476.675 178C476.675 177.45 477.125 177 477.675 177 478.225 177 478.675 177.45 478.675 178L478.675 184C478.675 184.55 478.225 185 477.675 185Z" fill="#307FE2" fill-rule="nonzero" fill-opacity="1"/></g></g></g></g></g></svg>