<svg width="49" height="49" xmlns="http://www.w3.org/2000/svg" xmlns:xlink="http://www.w3.org/1999/xlink" xml:space="preserve" overflow="hidden"><g transform="translate(-444 -208)"><g><g><g><g><path d="M472.69 255.39 465.515 255.39 465.283 254.717C465.138 254.303 465.008 253.91 464.885 253.538 464.112 251.188 463.74 250.208 462.315 249.628 460.832 249.003 459.815 249.452 457.62 250.525 457.267 250.697 456.897 250.88 456.503 251.065L455.867 251.365 450.828 246.34 451.135 245.7C451.335 245.285 451.533 244.897 451.717 244.53 452.79 242.413 453.24 241.417 452.628 239.98 452.055 238.58 451.045 238.182 448.812 237.415 448.4 237.272 447.962 237.122 447.503 236.952L446.848 236.702 446.848 229.625 447.503 229.375C448.003 229.193 448.457 229.038 448.9 228.875 451.075 228.125 452.06 227.755 452.62 226.357 453.23 224.923 452.795 223.95 451.758 221.88 451.557 221.485 451.348 221.065 451.133 220.613L450.83 220 455.865 214.98 456.5 215.27C456.955 215.477 457.375 215.682 457.77 215.872 459.883 216.893 460.88 217.322 462.315 216.755 463.747 216.133 464.145 215.092 464.902 212.805 465.022 212.443 465.152 212.055 465.29 211.66L465.517 211 472.688 211 472.922 211.667C473.065 212.072 473.193 212.458 473.315 212.822 474.065 215.11 474.475 216.145 475.95 216.768 477.367 217.35 478.385 216.905 480.552 215.84 480.913 215.663 481.302 215.475 481.7 215.285L482.335 214.985 487.37 220 487.068 220.637C486.867 221.057 486.672 221.45 486.49 221.82 485.438 223.938 484.99 224.932 485.578 226.383 486.165 227.833 487.117 228.167 489.375 228.93 489.788 229.07 490.225 229.217 490.693 229.385L491.355 229.635 491.355 236.725 490.7 236.975C490.25 237.14 489.823 237.288 489.422 237.428 487.198 238.195 486.172 238.598 485.57 239.997 484.997 241.438 485.438 242.432 486.485 244.54 486.67 244.913 486.865 245.305 487.065 245.728L487.367 246.365 482.337 251.385 481.703 251.092C481.263 250.887 480.855 250.688 480.47 250.503 478.297 249.443 477.36 249.038 475.955 249.643L475.93 249.643C474.45 250.232 474.073 251.228 473.29 253.622 473.175 253.973 473.055 254.34 472.922 254.725ZM466.94 253.39 471.25 253.39 471.38 252.988C472.158 250.615 472.77 248.738 475.168 247.777 477.465 246.795 479.168 247.628 481.337 248.68L481.908 248.958 484.945 245.928C484.855 245.75 484.77 245.577 484.695 245.408 483.628 243.258 482.783 241.557 483.72 239.217L483.72 239.19C484.72 236.915 486.495 236.295 488.758 235.515L489.345 235.31 489.345 231.033 488.725 230.822C486.475 230.072 484.698 229.465 483.725 227.14 482.753 224.815 483.625 223.08 484.695 220.928 484.78 220.76 484.865 220.587 484.945 220.413L481.913 217.387 481.427 217.637C479.228 218.717 477.492 219.57 475.177 218.617 472.8 217.617 472.177 215.78 471.427 213.458L471.265 213 466.945 213 466.797 213.445C466.027 215.75 465.418 217.595 463.09 218.598L463.065 218.598C460.742 219.523 459.045 218.702 456.895 217.663L456.29 217.372 453.25 220.413C453.35 220.615 453.45 220.812 453.547 221.005 454.615 223.135 455.46 224.818 454.473 227.143 453.555 229.435 451.695 230.062 449.543 230.792L448.85 231.042 448.85 235.322 449.467 235.538C451.742 236.32 453.54 236.938 454.467 239.223 455.467 241.565 454.55 243.363 453.495 245.447 453.413 245.61 453.328 245.775 453.245 245.947L456.275 248.97 456.733 248.745C458.95 247.655 460.7 246.795 463.075 247.795 465.402 248.742 466.01 250.59 466.78 252.928 466.837 253.068 466.89 253.228 466.943 253.39Z" fill="#000000" fill-rule="nonzero" fill-opacity="1"/><path d="M462.19 240.512C458.345 240.512 455.215 237.592 455.215 234.012 455.215 230.432 458.345 227.512 462.19 227.512 463.845 227.512 465.658 228.542 467.578 230.58 468.424 231.48 469.194 232.45 469.88 233.478 470.092 233.807 470.092 234.23 469.88 234.56 469.194 235.587 468.425 236.557 467.58 237.458 465.66 239.48 463.848 240.512 462.19 240.512ZM462.19 229.512C459.44 229.512 457.215 231.533 457.215 234.012 457.215 236.492 459.448 238.512 462.19 238.512 464.175 238.512 466.69 235.587 467.825 234.012 466.685 232.425 464.172 229.5 462.19 229.5Z" fill="#000000" fill-rule="nonzero" fill-opacity="1"/><path d="M475.845 240.512C474.19 240.512 472.375 239.48 470.455 237.445 469.61 236.544 468.842 235.575 468.158 234.548 467.945 234.218 467.945 233.795 468.158 233.465 468.842 232.437 469.612 231.468 470.457 230.568 472.378 228.533 474.19 227.5 475.845 227.5 479.69 227.5 482.82 230.417 482.82 234 482.82 237.583 479.69 240.512 475.845 240.512ZM470.21 234.012C471.35 235.592 473.86 238.512 475.845 238.512 478.595 238.512 480.82 236.49 480.82 234.012 480.82 231.535 478.587 229.512 475.845 229.512 473.862 229.5 471.35 232.425 470.21 234Z" fill="#000000" fill-rule="nonzero" fill-opacity="1"/><path d="M475.547 231.39 478.855 228.917 475.535 226.46 475.547 231.39Z" fill="#307FE2" fill-rule="nonzero" fill-opacity="1"/><path d="M462.517 226.46 459.21 228.938 462.538 231.39 462.517 226.46Z" fill="#307FE2" fill-rule="nonzero" fill-opacity="1"/><path d="M460.13 241.837 463.485 239.425 460.207 236.908 460.13 241.837Z" fill="#307FE2" fill-rule="nonzero" fill-opacity="1"/><path d="M478.397 236.908 475.062 239.348 478.36 241.84 478.397 236.908Z" fill="#307FE2" fill-rule="nonzero" fill-opacity="1"/></g></g></g></g></g></svg>