<svg width="49" height="50" xmlns="http://www.w3.org/2000/svg" xmlns:xlink="http://www.w3.org/1999/xlink" xml:space="preserve" overflow="hidden"><g transform="translate(-208 -454)"><g><g><g><g><path d="M239.887 477.203C239.887 477.073 239.76 477.073 239.637 477.073L233.285 477.073 235.697 469.897C235.697 469.77 235.697 469.647 235.57 469.647L235.32 469.647 226.682 480.203 226.682 480.453C226.81 480.582 226.81 480.582 226.932 480.582L232.652 480.582 230.113 488.408C230.124 488.503 230.168 488.591 230.238 488.658L230.365 488.658C230.434 488.659 230.491 488.604 230.493 488.535 230.493 488.533 230.493 488.53 230.492 488.527L239.887 477.443Z" fill="#307FE2" fill-rule="nonzero" fill-opacity="1"/><path d="M252.467 481.3 252.467 476.193C249.84 475.245 248.217 475.017 247.345 472.985 246.53 470.95 247.527 469.595 248.708 467.108L245.08 463.5C242.58 464.675 241.182 465.668 239.188 464.855 237.147 464 236.875 462.318 235.97 459.75L230.803 459.75C229.895 462.318 229.625 464 227.63 464.848 225.59 465.66 224.232 464.668 221.693 463.492L218.068 467.108C219.245 469.608 220.288 470.95 219.425 472.985 218.61 475.017 216.887 475.235 214.305 476.193L214.305 481.3C216.887 482.25 218.61 482.52 219.425 484.5 220.288 486.533 219.245 487.935 218.068 490.375L221.693 494C224.193 492.825 225.59 491.832 227.63 492.69 229.63 493.503 229.895 495.175 230.803 497.797L235.97 497.797C236.875 495.175 237.147 493.503 239.188 492.69 241.188 491.832 242.542 492.825 245.08 494L248.708 490.385C247.527 487.9 246.53 486.543 247.345 484.51 248.208 482.52 249.885 482.25 252.467 481.3Z" stroke="#000000" stroke-width="2" stroke-linecap="butt" stroke-linejoin="miter" stroke-miterlimit="10" stroke-opacity="1" fill="none" fill-rule="nonzero"/></g></g></g></g></g></svg>