<svg width="40" height="40" xmlns="http://www.w3.org/2000/svg" class="MuiSvgIcon-root MuiSvgIcon-colorMulticolor MuiSvgIcon-fontSizeInherit css-762qbi" focusable="false" aria-hidden="true" viewBox="0 0 40 40" style="font-size: 40px; cursor: pointer;"><g fill="none" fill-rule="evenodd"><path d="M0 0h40v40H0z"></path><path d="M40 19.902a9.04 9.04 0 01-4.112 7.607c-.045-.056-.078-.111-.123-.167l-.01-.01-.078-.09-.012-.01c-.01-.012-.022-.023-.033-.045a2.128 2.128 0 01.056-2.832l.733-1.321v-.022c.09-.322.145-.656.145-.989a3.556 3.556 0 00-3.546-3.553h-.1a2.07 2.07 0 01-1.056-.578 2.166 2.166 0 01-.622-1.332v-.045a3.556 3.556 0 00-3.545-3.309c-.912 0-1.8.356-2.457.978a2.145 2.145 0 01-1.289.433 2.125 2.125 0 01-1.411-.533l-.567-.5h-.178a3.52 3.52 0 00-1.612-.389c-.522 0-1.033.111-1.511.322-1.2.533-2 1.733-2.034 3.065v.167a2.12 2.12 0 01-.59 1.121 2.1 2.1 0 01-1.066.578h-.167c-1.69 0-3.19 1.243-3.49 2.887a3.555 3.555 0 001.123 3.298 2.13 2.13 0 01.011 2.231 3.55 3.55 0 00-1.123 3.343c-.966.178-1.8.178-2.256.178-5.012 0-9.08-4.075-9.08-9.072 0-.234.011-.478.022-.7a9.048 9.048 0 017.269-8.195c.267-3.054 2.845-5.452 5.968-5.452.923 0 1.8.2 2.612.6a9.151 9.151 0 012.79-3.121 9.053 9.053 0 015.201-1.633c4.713 0 8.603 3.61 9.036 8.207a9.073 9.073 0 016.513 5.607A9.43 9.43 0 0140 19.902zm-4.88 8.251a2.558 2.558 0 01-1.51 3.887c-.023 0-.034.01-.056.01a2.47 2.47 0 01-.567.067h-.145a3 3 0 00-1.711.878 3.028 3.028 0 00-.867 1.676c.022.19.022.378 0 .567a2.56 2.56 0 01-2.234 2.243 2.55 2.55 0 01-2.323-.966 3.105 3.105 0 00-1.767-.544 3.1 3.1 0 00-1.712.51c-.655.878-1.811 1.255-2.956.866a2.472 2.472 0 01-1.478-1.465 2.68 2.68 0 01-.178-.933c0-.056 0-.122.011-.178a3.058 3.058 0 00-.889-1.776 3.095 3.095 0 00-1.734-.878c-.267.022-.522 0-.767-.055l-.133-.034a2.569 2.569 0 01-1.856-2.454c0-.777.356-1.51.956-1.987a3.061 3.061 0 00.555-1.777c0-.644-.2-1.266-.566-1.788-.734-.588-1.067-1.521-.9-2.454.233-1.277 1.444-2.188 2.733-2.077.645-.1 1.234-.4 1.7-.877a3.086 3.086 0 00.879-1.743v-.211c.033-.955.6-1.81 1.445-2.188.822-.366 1.734-.31 2.456.145h.067l.278.244a3.122 3.122 0 004 .1 2.609 2.609 0 011.801-.744 2.564 2.564 0 012.556 2.398v.034a3.11 3.11 0 00.9 1.965 3.027 3.027 0 001.69.866c.056 0 .111-.01.167-.01a2.556 2.556 0 012.556 2.553c0 .356-.078.711-.222 1.033v-.022l-.39.644a3.087 3.087 0 00-.822 2.11c0 .744.267 1.465.756 2.032l.067.066.044.056c.078.078.122.144.167.211zm-2.077-5.32l.077-.099c.09-.122.19-.244.29-.355l.033-.045a.567.567 0 00.122-.366.574.574 0 00-.578-.578h-.067l-.133.023-.133-.023a5.019 5.019 0 01-2.935-1.443 5.11 5.11 0 01-1.478-3.187v-.089a.58.58 0 00-.578-.533.608.608 0 00-.422.178l-.045.044-.044.033a5.122 5.122 0 01-3.234 1.155 5.09 5.09 0 01-2.957-.944l-.033.011-.389-.333c-.089-.077-.322-.233-.689-.066-.156.066-.267.244-.278.444v.089l.011.11-.01.112a5.014 5.014 0 01-1.457 2.987 5.056 5.056 0 01-2.978 1.455l-.134.022-.144-.022a.587.587 0 00-.645.455.567.567 0 00.233.588l.123.09.089.121a5.028 5.028 0 011.044 3.087 5.03 5.03 0 01-1.033 3.076l-.1.122-.134.09a.583.583 0 00.178 1.033l.034.01a.594.594 0 00.2.011l.122-.01.122.01a5.052 5.052 0 013 1.455 5.11 5.11 0 011.468 3.054l.011.122-.011.122v.055c0 .045 0 .078.011.112v.022s0 .01.011.044c.078.244.3.4.556.4.2 0 .389-.1.489-.278l.1-.166.156-.111a5.069 5.069 0 013.012-.989 5.07 5.07 0 013.067 1.022l.133.1.09.144a.558.558 0 00.555.256c.256-.034.478-.245.5-.5.011-.056 0-.111 0-.167l-.022-.144.022-.155a5.052 5.052 0 011.456-2.954 5.06 5.06 0 012.957-1.455l.122-.011.122.011h.044c.045 0 .09 0 .134-.011l.033-.011a.583.583 0 00.423-.555.578.578 0 00-.1-.322c-.012-.011-.012-.023-.023-.034-.033-.033-.055-.066-.089-.1a5.113 5.113 0 01-1.233-3.32c.055-1.033.366-2.043.956-2.898zm-11.026 9.084l1.867-5.041-4.512.089 6.235-7.196-1.867 5.042 4.512-.09-6.235 7.196z" fill="#FFF" fill-rule="nonzero"></path></g></svg>
